<svg width="1036" height="996" viewBox="0 0 1036 996" fill="none" xmlns="http://www.w3.org/2000/svg">
<path opacity="0.2" d="M824.068 571.186C975.088 658.386 975.088 799.766 824.068 886.946C673.028 974.146 428.168 974.146 277.148 886.946C126.128 799.746 126.128 658.366 277.148 571.186C428.188 483.986 673.048 483.986 824.068 571.186Z" fill="#606060"/>
<path d="M902.568 725.027V698.287C902.568 698.287 902.568 698.107 902.568 698.027C902.568 698.027 902.568 698.027 902.568 698.007C902.568 641.547 865.248 585.107 790.648 542.047C641.428 455.887 399.488 455.907 250.268 542.047C175.668 585.107 138.368 641.567 138.348 698.007V725.267V725.327C138.348 781.787 175.668 838.227 250.268 881.307C399.488 967.467 641.428 967.467 790.648 881.307C865.268 838.227 902.568 781.767 902.568 725.307C902.568 725.307 902.568 725.307 902.568 725.287C902.568 725.207 902.568 725.127 902.568 725.067V725.027Z" fill="white" stroke="#2D2D2D" stroke-width="7" stroke-linecap="round" stroke-linejoin="round"/>
<path d="M902.567 725.246C902.567 725.246 902.567 725.086 902.567 725.026V697.987H899.647C889.547 650.927 853.227 605.407 790.667 569.287C641.447 483.127 399.507 483.127 250.287 569.287C187.727 605.407 151.407 650.947 141.307 697.987H138.367V725.246V725.307C138.367 781.767 175.687 838.206 250.287 881.286C399.507 967.447 641.447 967.447 790.667 881.286C865.287 838.206 902.587 781.746 902.587 725.286C902.587 725.286 902.587 725.286 902.587 725.266L902.567 725.246Z" fill="white" stroke="#2D2D2D" stroke-width="2" stroke-linecap="round" stroke-linejoin="round"/>
<path d="M902.568 697.987C902.568 641.527 865.248 585.086 790.648 542.026C641.428 455.866 399.488 455.866 250.268 542.026C175.668 585.086 138.368 641.547 138.348 697.987V698.047C138.348 754.507 175.668 810.946 250.268 854.026C399.488 940.186 641.428 940.186 790.648 854.026C865.268 810.946 902.568 754.486 902.568 698.026C902.568 698.026 902.568 698.026 902.568 698.006V697.987Z" fill="white" stroke="#2D2D2D" stroke-width="2" stroke-linecap="round" stroke-linejoin="round"/>
<path d="M868.528 697.987C868.528 646.287 834.347 594.606 766.047 555.166C629.407 476.266 407.847 476.266 271.187 555.166C202.867 594.606 168.707 646.307 168.688 697.987V698.026C168.688 704.246 169.188 710.466 170.188 716.666C177.427 761.986 211.087 806.166 271.167 840.846C407.807 919.746 629.368 919.746 766.028 840.846C826.128 806.146 859.788 761.966 867.028 716.646C868.028 710.446 868.528 704.207 868.528 697.987C868.528 697.987 868.528 697.987 868.528 697.967V697.987Z" fill="#F74B00"/>
<g opacity="0.2">
<path d="M270.988 722.767C310.048 707.747 362.708 713.927 388.628 736.567C414.548 759.207 403.888 789.727 364.828 804.747C325.768 819.767 273.108 813.587 247.188 790.947C221.268 768.307 231.928 737.787 270.988 722.767Z" fill="white"/>
<path d="M462.648 519.667C501.708 504.647 554.368 510.827 580.288 533.467C606.208 556.107 595.548 586.627 556.488 601.647C517.428 616.667 464.768 610.487 438.848 587.847C412.928 565.207 423.588 534.687 462.648 519.667Z" fill="white"/>
<path d="M598.147 807.907C539.967 821.167 475.807 818.667 421.267 801.147C408.107 813.367 388.627 823.027 365.727 828.707C441.887 858.787 537.527 865.107 623.647 845.487C642.567 841.187 660.547 835.687 677.287 829.167C652.987 824.267 632.087 815.107 617.367 802.847C611.107 804.707 604.667 806.407 598.167 807.867L598.147 807.907Z" fill="white"/>
<path d="M670.607 721.367C709.667 706.347 762.327 712.527 788.247 735.167C814.167 757.807 803.507 788.327 764.447 803.347C725.387 818.367 672.727 812.187 646.807 789.547C620.887 766.907 631.547 736.387 670.607 721.367Z" fill="white"/>
<path d="M798.667 709.467C802.267 684.947 795.987 660.007 780.367 636.947C753.087 596.747 698.667 564.487 630.167 547.667C634.747 561.927 631.687 576.647 621.287 589.947C664.227 603.447 697.587 625.287 715.507 651.707C724.287 664.647 729.107 678.147 729.847 691.927C755.547 693.447 779.487 699.547 798.627 709.447L798.667 709.467Z" fill="white"/>
<path d="M245.168 707.067C246.888 706.307 248.688 705.607 250.448 704.927C257.588 702.187 265.228 699.867 273.308 698.047C286.488 695.047 300.208 693.407 314.228 693.167C315.688 654.387 348.828 618.707 403.848 596.727C400.588 593.507 397.788 590.147 395.408 586.687C388.608 576.647 385.828 565.907 387.228 555.247C293.608 585.367 237.648 645.167 245.168 707.107V707.067Z" fill="white"/>
</g>
<path opacity="0.15" d="M761.59 614.808C884.132 663.588 877.47 717.123 746.712 734.375C615.935 751.632 410.587 726.078 288.045 677.299C165.503 628.519 172.165 574.984 302.924 557.732C433.7 540.475 639.049 566.029 761.59 614.808Z" fill="#606060"/>
<path d="M535.509 306.889C532.422 302.003 523.883 301.247 520.188 305.532L501.829 326.82C499.65 326.756 497.475 326.71 495.305 326.685L472.741 303.236C468.524 298.855 460.066 299.403 457.562 304.219L444.353 329.638C441.751 329.976 439.158 330.338 436.581 330.732L411.62 312.871C406.436 309.162 398.379 310.993 397.164 316.158L391.347 340.886C387.947 341.91 384.58 342.985 381.252 344.113L353.45 330.594C347.497 327.7 340.155 330.744 340.276 336.057L340.847 361.316C337.593 363.018 334.395 364.778 331.255 366.596L302.848 357.981C296.355 356.013 290.007 360.154 291.457 365.412L298.157 389.694C295.745 391.72 293.388 393.788 291.092 395.9L258.038 391.187C251.256 390.221 246.148 395.298 248.874 400.298L263.585 427.293C262.408 428.992 253.602 414.288 252.489 416.024L194.635 442.514C191.542 444.005 186.345 448.518 190.305 454.643C194.266 460.768 244.37 528.515 268.926 561.623C268.273 551.699 261.087 529.321 252.794 513.744C244.649 498.445 230.765 463.285 237.847 459.045C240.609 457.392 240.542 456.227 248.559 453.168C284.277 487.694 397.296 548.2 507.127 575.126C621.445 603.152 729.665 606.676 779.043 591.304C796.27 596.617 808.745 603.417 812.249 606.653C818.37 612.307 797.999 643.797 787.075 657.053C775.952 670.549 764.603 690.94 762.051 700.52C792.479 673.305 854.598 617.586 859.657 612.427C864.715 607.27 860.497 601.749 857.755 599.632L826.218 576.444L843.821 540.439C843.821 540.439 837.32 548.823 829.955 552.38C825.819 554.378 812.887 558.615 802.31 561.956C799.71 561.408 798.163 559.889 797.815 558.185L826.74 541.968C832.116 538.954 830.88 532.321 824.523 530.066L793.542 519.079C792.882 516.243 792.146 513.415 791.336 510.6L811.885 492.999C816.334 489.188 813.472 482.788 806.749 481.517L777.33 475.955C775.773 472.987 774.133 470.04 772.409 467.117L788.349 445.906C791.702 441.444 787.321 435.526 780.49 435.287L748.587 434.169C746.447 431.7 744.246 429.258 741.981 426.845L752.165 403.19C754.292 398.249 748.564 393.038 741.888 393.839L709.744 397.7C707.793 396.195 705.813 394.71 703.806 393.242L708.129 365.648C708.948 360.418 702.091 356.115 695.826 357.927L662.301 367.626C660.442 366.664 658.567 365.717 656.677 364.783L654.095 338.36C653.575 333.042 645.853 329.812 640.24 332.566L611.985 346.423C609.765 345.68 607.528 344.954 605.277 344.248L596.252 318.71C595.332 316.108 592.798 314.3 589.902 313.59C587.007 312.881 583.75 313.269 581.377 315.063L558.076 332.679C555.733 332.259 553.39 331.861 551.049 331.485L535.509 306.889Z" fill="#A82B00"/>
<path d="M520.125 181.59C524.325 175.222 533.851 175.823 537.218 182.667L554.168 217.121C556.776 217.527 559.387 217.965 561.998 218.435L588.322 191.795C591.002 189.083 594.648 188.34 597.87 189.194C601.094 190.048 603.894 192.503 604.878 196.188L614.534 232.367C617.037 233.253 619.523 234.168 621.992 235.109L653.788 213.589C660.104 209.313 668.677 213.513 669.168 221.124L671.611 258.942C673.707 260.176 675.786 261.43 677.846 262.706L715.461 246.86C722.49 243.899 730.078 249.691 729.076 257.252L723.785 297.146C726.002 299.141 728.19 301.162 730.344 303.212L766.318 295.833C773.789 294.301 780.101 301.462 777.642 308.682L765.87 343.251C768.36 346.589 770.778 349.972 773.127 353.397L808.748 353.185C816.376 353.139 821.171 361.393 817.351 367.995L799.189 399.38C801.066 403.481 802.85 407.622 804.54 411.798L837.311 418.112C844.8 419.555 847.891 428.588 842.856 434.317L819.607 460.777C820.465 464.777 821.239 468.797 821.929 472.835L856.356 486.855C863.42 489.732 864.69 499.192 858.634 503.829L826.05 528.78C826.41 531.208 828.113 533.303 831.008 533.942C842.879 528.538 857.398 521.713 862.051 518.607C870.338 513.076 877.703 500.722 877.741 500.658C871.024 487.606 859.423 456.644 866.758 437.213C875.928 412.924 888.83 386.899 955.873 374.689C938.532 407.172 928.739 448.201 928.552 461.239C943.75 459.454 979.061 444.752 998.723 400.234C1003.53 412.96 1004.19 428.951 998.112 451.877C993.17 470.506 969.801 509.264 897.841 525.622C888.718 533.435 873.143 544.056 857.474 553.395L892.319 584.914C895.346 587.799 899.966 595.491 894.229 603.19C888.492 610.89 818.165 694.49 783.719 735.328C786.73 721.417 799.749 691.472 812.4 671.447C824.825 651.778 848.108 605.372 841.365 597.597C837.504 593.146 816.776 580.194 797.619 573.541C742.201 598.443 626.271 595.573 499.031 561.822C376.786 529.395 277.738 477.384 238.413 429.813C225.061 433.813 213.547 438.88 210.433 441.413C202.451 447.909 217.374 497.635 226.217 519.153C235.222 541.062 242.876 572.805 243.439 587.027C216.56 540.856 161.72 446.373 157.397 437.797C153.075 429.223 158.956 422.443 162.436 420.124L227.509 378.764C228.782 376.208 230.089 373.673 231.432 371.165L215.448 333.218C212.488 326.189 218.278 318.602 225.839 319.604L262.685 324.492C265.286 321.327 267.954 318.22 270.681 315.172L263.603 280.665C262.07 273.194 269.232 266.881 276.452 269.339L308.042 280.097C311.58 277.307 315.182 274.596 318.845 271.964L318.63 235.705C318.584 228.078 326.836 223.285 333.438 227.104L364.271 244.944C368.008 243.133 371.787 241.396 375.602 239.732L382.514 203.87C383.957 196.38 392.988 193.289 398.718 198.324L426.304 222.563C429.19 221.851 432.092 221.183 435.005 220.549L450.186 183.273C453.063 176.211 462.521 174.941 467.159 180.996L491.974 213.401C494.398 213.314 496.827 213.256 499.26 213.223L520.125 181.59Z" fill="#F74B00"/>
<path d="M642.749 463.126C640.919 454.296 631.51 446.869 622.507 442.205C617.387 439.553 602.092 438.231 594.143 441.888C584.208 446.459 570.75 467.165 567.72 480.016C564.69 492.867 569.956 510.194 574.592 515.596C579.227 520.998 585.707 528.027 603.042 528.453C620.377 528.879 632.244 519.889 638.868 510.646C645.492 501.404 644.579 471.956 642.749 463.126Z" fill="black"/>
<path d="M456.155 413.869C462.212 407.003 474.248 405.188 484.536 405.606C490.221 406.183 504.541 412.376 509.71 419.602C516.172 428.633 517.62 453.667 513.824 466.525C510.028 479.384 496.664 492.015 489.857 494.446C483.05 496.877 473.797 499.815 458.295 491.466C442.793 483.117 436.852 469.216 435.661 457.732C434.471 446.247 450.097 420.735 456.155 413.869Z" fill="black"/>
<mask id="path-17-outside-1_1373_645" maskUnits="userSpaceOnUse" x="73.6277" y="130.94" width="954.492" height="629.035" fill="black">
<rect fill="white" x="73.6277" y="130.94" width="954.492" height="629.035"/>
<path d="M520.125 181.59C524.324 175.223 533.851 175.823 537.218 182.667L554.167 217.121C556.775 217.527 559.386 217.965 561.997 218.435L588.322 191.796C591.002 189.084 594.648 188.34 597.87 189.194C601.093 190.049 603.894 192.503 604.878 196.188L614.534 232.367C617.036 233.253 619.523 234.169 621.991 235.109L653.787 213.589C660.103 209.313 668.676 213.513 669.167 221.125L671.611 258.942C673.707 260.176 675.785 261.43 677.846 262.706L715.46 246.86C722.489 243.9 730.078 249.691 729.075 257.252L723.785 297.146C726.001 299.141 728.189 301.162 730.343 303.212L766.317 295.833C773.789 294.301 780.101 301.462 777.642 308.682L765.869 343.251C768.359 346.589 770.778 349.972 773.127 353.398L808.748 353.185C816.376 353.139 821.17 361.393 817.35 367.995L799.189 399.381C801.066 403.481 802.849 407.622 804.539 411.799L837.311 418.112C844.8 419.555 847.89 428.588 842.856 434.318L819.607 460.777C820.465 464.776 821.239 468.797 821.929 472.835L856.356 486.855C863.42 489.732 864.689 499.192 858.633 503.83L826.049 528.78C826.187 529.708 826.522 530.588 827.044 531.357C827.758 531.864 828.353 532.442 828.824 533.064C829.453 533.458 830.181 533.759 831.008 533.941C842.879 528.537 857.397 521.713 862.051 518.607C870.338 513.076 877.703 500.723 877.741 500.658C871.023 487.606 859.423 456.644 866.758 437.213C875.928 412.924 888.83 386.899 955.872 374.689C938.531 407.172 928.739 448.201 928.552 461.239C943.749 459.454 979.061 444.752 998.723 400.233C1003.53 412.96 1004.19 428.951 998.111 451.878C993.17 470.507 969.801 509.264 897.841 525.622C888.717 533.435 873.143 544.056 857.474 553.395L892.318 584.914C895.346 587.799 899.965 595.491 894.228 603.19C888.491 610.89 818.165 694.49 783.719 735.328C786.729 721.417 799.749 691.472 812.399 671.447C817.271 663.735 823.811 651.912 829.557 639.92C807.917 659.443 779.672 684.761 762.053 700.521C764.604 690.94 775.953 670.549 787.076 657.053C798.001 643.797 818.371 612.308 812.25 606.654C808.747 603.417 796.272 596.618 779.045 591.304C729.667 606.676 621.446 603.151 507.128 575.126C397.298 548.2 284.279 487.694 248.56 453.168C240.544 456.227 240.611 457.392 237.848 459.045C230.766 463.285 244.65 498.444 252.795 513.744C261.088 529.321 268.275 551.699 268.928 561.623C255.188 543.099 233.451 513.731 216.273 490.379C219.536 501.355 223.224 511.87 226.217 519.153C235.221 541.062 242.875 572.806 243.439 587.027C216.56 540.857 161.719 446.373 157.396 437.798C153.074 429.223 158.955 422.443 162.435 420.124L201.467 395.315C188.32 375.622 173.059 346.452 167.051 329.683L167.05 329.68C112.662 279.807 122.076 230.793 127.017 212.164C133.099 189.237 159.7 177.666 172.291 173.952C163.332 204.122 159.976 249.455 172.288 258.541C178.588 247.123 190.419 206.636 191.458 169.831C243.634 213.664 241.94 242.663 237.865 268.303C234.606 288.815 209.186 309.955 196.882 317.962L196.883 317.963C196.883 317.963 194.315 329.942 198.641 338.061C201.885 344.148 218.998 367.528 227.365 378.855L227.509 378.764C228.782 376.208 230.088 373.674 231.432 371.165L215.448 333.218C212.488 326.189 218.277 318.602 225.838 319.604L262.685 324.492C265.286 321.327 267.954 318.22 270.681 315.172L263.603 280.665C262.07 273.194 269.231 266.881 276.451 269.339L308.041 280.097C311.579 277.307 315.182 274.596 318.845 271.965L318.63 235.705C318.584 228.078 326.836 223.284 333.438 227.104L364.271 244.944C368.008 243.134 371.786 241.396 375.602 239.732L382.514 203.87C383.957 196.381 392.988 193.29 398.717 198.324L426.303 222.563C429.189 221.851 432.091 221.183 435.004 220.549L450.185 183.273C453.063 176.211 462.521 174.942 467.158 180.995L491.974 213.401C494.397 213.314 496.827 213.256 499.26 213.223L520.125 181.59Z"/>
</mask>
<path d="M520.125 181.59L523.464 183.792L523.464 183.792L520.125 181.59ZM537.218 182.667L540.807 180.901L540.807 180.901L537.218 182.667ZM554.167 217.121L550.578 218.887C551.153 220.057 552.263 220.873 553.552 221.073L554.167 217.121ZM561.997 218.435L561.287 222.372C562.585 222.606 563.915 222.185 564.842 221.247L561.997 218.435ZM588.322 191.796L585.477 188.984L585.477 188.984L588.322 191.796ZM597.87 189.194L596.845 193.061L596.845 193.061L597.87 189.194ZM604.878 196.188L608.742 195.157L608.742 195.157L604.878 196.188ZM614.534 232.367L610.669 233.399C611.009 234.673 611.955 235.698 613.199 236.138L614.534 232.367ZM621.991 235.109L620.567 238.847C621.785 239.312 623.154 239.153 624.234 238.422L621.991 235.109ZM653.787 213.589L656.029 216.901L656.029 216.901L653.787 213.589ZM669.167 221.125L665.176 221.382L665.176 221.383L669.167 221.125ZM671.611 258.942L667.619 259.2C667.704 260.523 668.44 261.717 669.582 262.39L671.611 258.942ZM677.846 262.706L675.74 266.107C676.842 266.789 678.205 266.895 679.399 266.392L677.846 262.706ZM715.46 246.86L713.908 243.174L713.907 243.174L715.46 246.86ZM729.075 257.252L733.041 257.778L733.041 257.778L729.075 257.252ZM723.785 297.146L719.819 296.62C719.646 297.928 720.129 299.237 721.109 300.12L723.785 297.146ZM730.343 303.212L727.586 306.109C728.534 307.012 729.864 307.393 731.147 307.13L730.343 303.212ZM766.317 295.833L767.121 299.752L767.121 299.752L766.317 295.833ZM777.642 308.682L781.429 309.972L781.429 309.972L777.642 308.682ZM765.869 343.251L762.083 341.962C761.658 343.21 761.875 344.587 762.663 345.643L765.869 343.251ZM773.127 353.398L769.828 355.66C770.579 356.754 771.824 357.405 773.151 357.398L773.127 353.398ZM808.748 353.185L808.725 349.185L808.725 349.185L808.748 353.185ZM817.35 367.995L820.812 369.999L820.812 369.999L817.35 367.995ZM799.189 399.381L795.727 397.377C795.078 398.499 795.012 399.866 795.552 401.045L799.189 399.381ZM804.539 411.799L800.831 413.299C801.34 414.556 802.451 415.47 803.782 415.726L804.539 411.799ZM837.311 418.112L838.068 414.184L838.067 414.184L837.311 418.112ZM842.856 434.318L845.861 436.958L845.861 436.958L842.856 434.318ZM819.607 460.777L816.602 458.137C815.766 459.088 815.43 460.379 815.696 461.616L819.607 460.777ZM821.929 472.835L817.986 473.509C818.219 474.872 819.139 476.018 820.42 476.54L821.929 472.835ZM856.356 486.855L857.864 483.15L857.864 483.15L856.356 486.855ZM858.633 503.83L861.065 507.005L861.065 507.005L858.633 503.83ZM826.049 528.78L823.618 525.604C822.463 526.488 821.879 527.929 822.093 529.367L826.049 528.78ZM827.044 531.357L823.735 533.605C824.003 533.999 824.34 534.343 824.729 534.619L827.044 531.357ZM828.824 533.064L825.634 535.477C825.927 535.865 826.289 536.197 826.702 536.455L828.824 533.064ZM831.008 533.941L830.146 537.847C830.992 538.034 831.876 537.941 832.665 537.582L831.008 533.941ZM862.051 518.607L864.272 521.934L864.272 521.934L862.051 518.607ZM877.741 500.658L881.177 502.705C881.883 501.52 881.929 500.055 881.297 498.828L877.741 500.658ZM866.758 437.213L863.016 435.8L863.016 435.8L866.758 437.213ZM955.872 374.689L959.4 376.573C960.123 375.219 960.008 373.571 959.103 372.332C958.199 371.092 956.665 370.479 955.155 370.754L955.872 374.689ZM928.552 461.239L924.552 461.182C924.535 462.334 925.016 463.437 925.872 464.209C926.727 464.981 927.874 465.346 929.018 465.212L928.552 461.239ZM998.723 400.233L1002.46 398.821C1001.89 397.301 1000.46 396.279 998.832 396.235C997.209 396.19 995.72 397.132 995.064 398.617L998.723 400.233ZM998.111 451.878L1001.98 452.903L1001.98 452.903L998.111 451.878ZM897.841 525.622L896.954 521.721C896.321 521.865 895.732 522.161 895.239 522.584L897.841 525.622ZM857.474 553.395L855.426 549.959C854.336 550.608 853.619 551.737 853.493 553C853.368 554.263 853.849 555.51 854.79 556.361L857.474 553.395ZM892.318 584.914L895.078 582.018C895.053 581.994 895.027 581.971 895.002 581.948L892.318 584.914ZM894.228 603.19L897.436 605.58L897.436 605.58L894.228 603.19ZM783.719 735.328L779.809 734.482C779.42 736.277 780.305 738.107 781.954 738.917C783.603 739.728 785.592 739.311 786.776 737.907L783.719 735.328ZM812.399 671.447L815.781 673.583L815.781 673.583L812.399 671.447ZM829.557 639.92L833.164 641.648C833.99 639.926 833.482 637.86 831.952 636.716C830.421 635.572 828.296 635.67 826.878 636.95L829.557 639.92ZM762.053 700.521L758.187 699.491C757.732 701.2 758.453 703.004 759.96 703.929C761.466 704.854 763.402 704.681 764.719 703.502L762.053 700.521ZM787.076 657.053L790.163 659.597L790.163 659.597L787.076 657.053ZM812.25 606.654L814.965 603.715L814.964 603.715L812.25 606.654ZM779.045 591.304L780.224 587.482C779.452 587.244 778.626 587.245 777.855 587.485L779.045 591.304ZM507.128 575.126L506.176 579.01L506.176 579.01L507.128 575.126ZM248.56 453.168L251.341 450.292C250.224 449.213 248.585 448.877 247.134 449.431L248.56 453.168ZM237.848 459.045L235.794 455.613L235.794 455.613L237.848 459.045ZM252.795 513.744L249.264 515.623L249.264 515.623L252.795 513.744ZM268.928 561.623L265.715 564.006C266.772 565.431 268.641 565.989 270.306 565.378C271.972 564.766 273.035 563.131 272.919 561.36L268.928 561.623ZM216.273 490.379L219.495 488.009C218.344 486.443 216.232 485.932 214.492 486.798C212.751 487.664 211.885 489.656 212.439 491.519L216.273 490.379ZM226.217 519.153L222.517 520.673L222.517 520.673L226.217 519.153ZM243.439 587.027L239.982 589.04C240.907 590.628 242.794 591.382 244.558 590.868C246.322 590.354 247.509 588.705 247.436 586.869L243.439 587.027ZM157.396 437.798L153.824 439.598L153.824 439.598L157.396 437.798ZM162.435 420.124L160.29 416.748C160.265 416.764 160.241 416.779 160.218 416.795L162.435 420.124ZM201.467 395.315L203.612 398.691C204.521 398.114 205.158 397.194 205.38 396.141C205.603 395.088 205.391 393.99 204.793 393.094L201.467 395.315ZM167.051 329.683L163.144 330.542C163.181 330.708 163.228 330.872 163.285 331.032L167.051 329.683ZM167.05 329.68L170.957 328.821C170.78 328.018 170.36 327.288 169.753 326.732L167.05 329.68ZM127.017 212.164L123.151 211.138L123.151 211.138L127.017 212.164ZM172.291 173.952L176.125 175.091C176.542 173.685 176.157 172.164 175.122 171.126C174.086 170.088 172.565 169.701 171.159 170.115L172.291 173.952ZM172.288 258.541L169.913 261.76C170.84 262.444 172.017 262.695 173.143 262.449C174.269 262.203 175.234 261.483 175.791 260.474L172.288 258.541ZM191.458 169.831L194.031 166.768C192.856 165.781 191.219 165.553 189.819 166.181C188.419 166.81 187.502 168.184 187.459 169.718L191.458 169.831ZM237.865 268.303L241.816 268.931L241.816 268.931L237.865 268.303ZM196.882 317.962L194.7 314.609C193.751 315.227 193.108 316.218 192.931 317.337C192.754 318.455 193.06 319.597 193.772 320.477L196.882 317.962ZM196.883 317.963L200.794 318.802C201.048 317.62 200.753 316.388 199.993 315.448L196.883 317.963ZM198.641 338.061L202.171 336.18L202.171 336.18L198.641 338.061ZM227.365 378.855L224.147 381.232C225.392 382.916 227.725 383.356 229.497 382.24L227.365 378.855ZM227.509 378.764L229.641 382.149C230.262 381.758 230.763 381.204 231.09 380.547L227.509 378.764ZM231.432 371.165L234.958 373.054C235.528 371.99 235.587 370.725 235.118 369.613L231.432 371.165ZM215.448 333.218L219.135 331.665L219.135 331.665L215.448 333.218ZM225.838 319.604L226.364 315.639L226.364 315.639L225.838 319.604ZM262.685 324.492L262.159 328.457C263.53 328.639 264.898 328.1 265.776 327.031L262.685 324.492ZM270.681 315.172L273.662 317.839C274.506 316.896 274.854 315.608 274.6 314.368L270.681 315.172ZM263.603 280.665L267.521 279.861L267.521 279.861L263.603 280.665ZM276.451 269.339L277.74 265.553L277.74 265.552L276.451 269.339ZM308.041 280.097L306.752 283.883C308.035 284.32 309.453 284.077 310.518 283.238L308.041 280.097ZM318.845 271.965L321.178 275.213C322.231 274.457 322.852 273.237 322.845 271.941L318.845 271.965ZM318.63 235.705L322.629 235.681L322.629 235.681L318.63 235.705ZM333.438 227.104L335.441 223.642L335.441 223.642L333.438 227.104ZM364.271 244.944L362.268 248.406C363.417 249.071 364.82 249.123 366.015 248.544L364.271 244.944ZM375.602 239.732L377.201 243.398C378.409 242.871 379.28 241.783 379.53 240.489L375.602 239.732ZM382.514 203.87L386.441 204.627L386.441 204.627L382.514 203.87ZM398.717 198.324L401.358 195.319L401.358 195.319L398.717 198.324ZM426.303 222.563L423.663 225.568C424.647 226.432 425.991 226.76 427.262 226.446L426.303 222.563ZM435.004 220.549L435.854 224.458C437.143 224.178 438.211 223.28 438.709 222.058L435.004 220.549ZM450.185 183.273L446.481 181.764L446.481 181.764L450.185 183.273ZM467.158 180.995L470.334 178.563L470.333 178.563L467.158 180.995ZM491.974 213.401L488.798 215.833C489.586 216.861 490.823 217.445 492.117 217.398L491.974 213.401ZM499.26 213.223L499.313 217.223C500.638 217.205 501.869 216.532 502.599 215.426L499.26 213.223ZM520.125 181.59L523.464 183.792C525.961 180.005 531.626 180.363 533.629 184.432L537.218 182.667L540.807 180.901C536.075 171.283 522.687 170.44 516.786 179.387L520.125 181.59ZM537.218 182.667L533.629 184.432L550.578 218.887L554.167 217.121L557.756 215.355L540.807 180.901L537.218 182.667ZM554.167 217.121L553.552 221.073C556.129 221.475 558.708 221.907 561.287 222.372L561.997 218.435L562.706 214.499C560.064 214.023 557.422 213.579 554.782 213.169L554.167 217.121ZM561.997 218.435L564.842 221.247L591.167 194.608L588.322 191.796L585.477 188.984L559.152 215.624L561.997 218.435ZM588.322 191.796L591.167 194.608C592.764 192.992 594.901 192.546 596.845 193.061L597.87 189.194L598.894 185.328C594.394 184.135 589.24 185.176 585.477 188.984L588.322 191.796ZM597.87 189.194L596.845 193.061C598.79 193.576 600.427 195.025 601.013 197.22L604.878 196.188L608.742 195.157C607.361 189.981 603.396 186.521 598.894 185.328L597.87 189.194ZM604.878 196.188L601.013 197.22L610.669 233.399L614.534 232.367L618.398 231.336L608.742 195.157L604.878 196.188ZM614.534 232.367L613.199 236.138C615.67 237.013 618.127 237.917 620.567 238.847L621.991 235.109L623.416 231.372C620.919 230.42 618.403 229.494 615.868 228.596L614.534 232.367ZM621.991 235.109L624.234 238.422L656.029 216.901L653.787 213.589L651.545 210.276L619.749 231.797L621.991 235.109ZM653.787 213.589L656.029 216.901C659.786 214.358 664.883 216.856 665.176 221.382L669.167 221.125L673.159 220.867C672.468 210.17 660.421 204.268 651.545 210.276L653.787 213.589ZM669.167 221.125L665.176 221.383L667.619 259.2L671.611 258.942L675.602 258.684L673.159 220.867L669.167 221.125ZM671.611 258.942L669.582 262.39C671.652 263.608 673.705 264.847 675.74 266.107L677.846 262.706L679.952 259.305C677.865 258.013 675.761 256.743 673.64 255.495L671.611 258.942ZM677.846 262.706L679.399 266.392L717.013 250.547L715.46 246.86L713.907 243.174L676.293 259.02L677.846 262.706ZM715.46 246.86L717.013 250.547C721.193 248.786 725.706 252.231 725.11 256.726L729.075 257.252L733.041 257.778C734.449 247.152 723.785 239.013 713.908 243.174L715.46 246.86ZM729.075 257.252L725.11 256.726L719.819 296.62L723.785 297.146L727.75 297.672L733.041 257.778L729.075 257.252ZM723.785 297.146L721.109 300.12C723.3 302.091 725.46 304.087 727.586 306.109L730.343 303.212L733.101 300.314C730.918 298.237 728.703 296.191 726.46 294.173L723.785 297.146ZM730.343 303.212L731.147 307.13L767.121 299.752L766.317 295.833L765.513 291.915L729.539 299.293L730.343 303.212ZM766.317 295.833L767.121 299.752C771.564 298.84 775.318 303.099 773.856 307.393L777.642 308.682L781.429 309.972C784.884 299.825 776.013 289.761 765.513 291.915L766.317 295.833ZM777.642 308.682L773.856 307.393L762.083 341.962L765.869 343.251L769.656 344.541L781.429 309.972L777.642 308.682ZM765.869 343.251L762.663 345.643C765.121 348.937 767.509 352.278 769.828 355.66L773.127 353.398L776.426 351.135C774.047 347.667 771.597 344.24 769.075 340.859L765.869 343.251ZM773.127 353.398L773.151 357.398L808.772 357.185L808.748 353.185L808.725 349.185L773.103 349.398L773.127 353.398ZM808.748 353.185L808.772 357.185C813.309 357.158 816.159 362.067 813.888 365.992L817.35 367.995L820.812 369.999C826.181 360.72 819.442 349.121 808.725 349.185L808.748 353.185ZM817.35 367.995L813.888 365.992L795.727 397.377L799.189 399.381L802.651 401.384L820.812 369.999L817.35 367.995ZM799.189 399.381L795.552 401.045C797.404 405.091 799.163 409.177 800.831 413.299L804.539 411.799L808.247 410.298C806.535 406.067 804.728 401.871 802.826 397.716L799.189 399.381ZM804.539 411.799L803.782 415.726L836.554 422.04L837.311 418.112L838.067 414.184L805.296 407.871L804.539 411.799ZM837.311 418.112L836.553 422.04C841.006 422.898 842.845 428.27 839.851 431.677L842.856 434.318L845.861 436.958C852.935 428.907 848.593 416.213 838.068 414.184L837.311 418.112ZM842.856 434.318L839.851 431.677L816.602 458.137L819.607 460.777L822.612 463.417L845.861 436.958L842.856 434.318ZM819.607 460.777L815.696 461.616C816.542 465.56 817.305 469.526 817.986 473.509L821.929 472.835L825.872 472.162C825.172 468.069 824.388 463.993 823.518 459.938L819.607 460.777ZM821.929 472.835L820.42 476.54L854.847 490.56L856.356 486.855L857.864 483.15L823.438 469.131L821.929 472.835ZM856.356 486.855L854.847 490.56C859.047 492.27 859.802 497.896 856.201 500.654L858.633 503.83L861.065 507.005C869.575 500.489 867.792 487.193 857.864 483.15L856.356 486.855ZM858.633 503.83L856.201 500.654L823.618 525.604L826.049 528.78L828.481 531.956L861.065 507.005L858.633 503.83ZM826.049 528.78L822.093 529.367C822.315 530.863 822.859 532.315 823.735 533.605L827.044 531.357L830.352 529.109C830.184 528.861 830.06 528.554 830.006 528.193L826.049 528.78ZM827.044 531.357L824.729 534.619C825.128 534.902 825.423 535.198 825.634 535.477L828.824 533.064L832.014 530.651C831.284 529.685 830.388 528.825 829.359 528.095L827.044 531.357ZM828.824 533.064L826.702 536.455C827.734 537.101 828.892 537.571 830.146 537.847L831.008 533.941L831.869 530.035C831.47 529.947 831.171 529.814 830.946 529.674L828.824 533.064ZM831.008 533.941L832.665 537.582C838.613 534.874 845.246 531.801 850.985 529.01C856.63 526.264 861.678 523.665 864.272 521.934L862.051 518.607L859.831 515.28C857.77 516.655 853.232 519.021 847.486 521.815C841.835 524.564 835.273 527.605 829.35 530.301L831.008 533.941ZM862.051 518.607L864.272 521.934C868.982 518.79 873.22 513.886 876.173 510.005C879.179 506.053 881.116 502.809 881.177 502.705L877.741 500.658L874.304 498.612C874.327 498.572 872.563 501.537 869.806 505.161C866.995 508.855 863.407 512.893 859.831 515.28L862.051 518.607ZM877.741 500.658L881.297 498.828C878.064 492.546 873.608 481.844 870.87 470.397C868.098 458.811 867.267 447.19 870.5 438.626L866.758 437.213L863.016 435.8C858.914 446.667 860.215 460.243 863.089 472.259C865.997 484.414 870.7 495.719 874.184 502.489L877.741 500.658ZM866.758 437.213L870.5 438.626C875.025 426.639 880.257 414.839 892.235 404.442C904.258 394.006 923.482 384.654 956.588 378.624L955.872 374.689L955.155 370.754C921.22 376.934 900.471 386.7 886.991 398.401C873.464 410.142 867.66 423.498 863.016 435.8L866.758 437.213ZM955.872 374.689L952.343 372.805C943.507 389.357 936.631 408.008 931.938 424.138C927.278 440.158 924.654 454.101 924.552 461.182L928.552 461.239L932.551 461.297C932.637 455.339 935.002 442.248 939.62 426.373C944.206 410.608 950.896 392.504 959.4 376.573L955.872 374.689ZM928.552 461.239L929.018 465.212C945.539 463.271 982.115 447.738 1002.38 401.849L998.723 400.233L995.064 398.617C976.007 441.767 941.959 455.636 928.085 457.267L928.552 461.239ZM998.723 400.233L994.98 401.646C999.399 413.351 1000.19 428.44 994.245 450.852L998.111 451.878L1001.98 452.903C1008.2 429.463 1007.66 412.569 1002.46 398.821L998.723 400.233ZM998.111 451.878L994.245 450.852C989.73 467.871 967.646 505.651 896.954 521.721L897.841 525.622L898.728 529.522C971.956 512.876 996.609 473.142 1001.98 452.903L998.111 451.878ZM897.841 525.622L895.239 522.584C886.365 530.183 871.01 540.671 855.426 549.959L857.474 553.395L859.522 556.831C875.276 547.441 891.07 536.686 900.443 528.66L897.841 525.622ZM857.474 553.395L854.79 556.361L889.635 587.88L892.318 584.914L895.002 581.948L860.157 550.428L857.474 553.395ZM892.318 584.914L889.559 587.81C890.629 588.829 892.081 590.836 892.681 593.222C893.236 595.433 893.094 598.017 891.021 600.8L894.228 603.19L897.436 605.58C901.099 600.663 901.515 595.552 900.439 591.271C899.407 587.165 897.035 583.883 895.078 582.018L892.318 584.914ZM894.228 603.19L891.021 600.8C885.379 608.371 815.19 691.812 780.661 732.749L783.719 735.328L786.776 737.907C821.139 697.167 891.603 613.408 897.436 605.58L894.228 603.19ZM783.719 735.328L787.628 736.174C789.044 729.628 792.916 718.966 798.099 707.305C803.256 695.701 809.586 683.39 815.781 673.583L812.399 671.447L809.018 669.311C802.562 679.529 796.056 692.203 790.789 704.056C785.546 715.851 781.403 727.116 779.809 734.482L783.719 735.328ZM812.399 671.447L815.781 673.583C820.749 665.719 827.363 653.757 833.164 641.648L829.557 639.92L825.95 638.192C820.26 650.068 813.793 661.751 809.018 669.311L812.399 671.447ZM829.557 639.92L826.878 636.95C805.244 656.468 777.003 681.782 759.386 697.539L762.053 700.521L764.719 703.502C782.341 687.741 810.59 662.419 832.236 642.89L829.557 639.92ZM762.053 700.521L765.918 701.55C767.056 697.276 770.319 690.148 774.826 682.235C779.289 674.399 784.781 666.127 790.163 659.597L787.076 657.053L783.989 654.509C778.249 661.475 772.505 670.146 767.874 678.275C763.288 686.327 759.601 694.185 758.187 699.491L762.053 700.521ZM787.076 657.053L790.163 659.597C795.776 652.785 803.738 641.399 809.551 630.947C812.446 625.741 814.916 620.577 816.258 616.229C816.924 614.069 817.384 611.883 817.374 609.878C817.364 607.909 816.884 605.488 814.965 603.715L812.25 606.654L809.536 609.592C809.147 609.233 809.369 609.033 809.374 609.92C809.379 610.77 809.167 612.076 808.613 613.871C807.515 617.431 805.357 622.028 802.559 627.058C796.986 637.078 789.3 648.065 783.989 654.509L787.076 657.053ZM812.25 606.654L814.964 603.715C812.754 601.674 808.307 598.956 802.539 596.159C796.644 593.3 789.029 590.198 780.224 587.482L779.045 591.304L777.866 595.126C786.287 597.724 793.523 600.678 799.049 603.357C804.7 606.097 808.242 608.397 809.536 609.592L812.25 606.654ZM779.045 591.304L777.855 587.485C753.845 594.96 715.009 597.949 667.646 595.494C620.391 593.045 565.006 585.196 508.08 571.241L507.128 575.126L506.176 579.01C563.568 593.081 619.452 601.007 667.232 603.484C714.904 605.955 754.866 603.021 780.234 595.123L779.045 591.304ZM507.128 575.126L508.08 571.241C453.5 557.86 398.061 536.115 351.815 513.406C305.466 490.647 268.739 467.11 251.341 450.292L248.56 453.168L245.78 456.044C264.1 473.752 301.742 497.731 348.289 520.587C394.94 543.495 450.925 565.465 506.176 579.01L507.128 575.126ZM248.56 453.168L247.134 449.431C238.74 452.635 237.69 454.478 235.794 455.613L237.848 459.045L239.902 462.477C243.532 460.306 242.348 459.82 249.987 456.905L248.56 453.168ZM237.848 459.045L235.794 455.613C233.532 456.967 232.591 459.27 232.202 461.193C231.806 463.157 231.836 465.393 232.072 467.646C232.548 472.183 233.971 477.759 235.803 483.469C239.481 494.933 245.082 507.767 249.264 515.623L252.795 513.744L256.326 511.864C252.363 504.42 246.95 492.025 243.42 481.025C241.648 475.502 240.419 470.537 240.029 466.812C239.832 464.933 239.876 463.608 240.044 462.777C240.22 461.906 240.394 462.183 239.903 462.477L237.848 459.045ZM252.795 513.744L249.264 515.623C253.281 523.168 257.068 532.439 259.93 541.063C262.821 549.772 264.644 557.452 264.936 561.886L268.928 561.623L272.919 561.36C272.558 555.871 270.462 547.399 267.523 538.543C264.555 529.603 260.602 519.897 256.326 511.864L252.795 513.744ZM268.928 561.623L272.14 559.24C258.402 540.718 236.669 511.354 219.495 488.009L216.273 490.379L213.051 492.75C230.233 516.107 251.974 545.48 265.715 564.006L268.928 561.623ZM216.273 490.379L212.439 491.519C215.731 502.595 219.462 513.24 222.517 520.673L226.217 519.153L229.917 517.632C226.985 510.499 223.34 500.116 220.108 489.24L216.273 490.379ZM226.217 519.153L222.517 520.673C226.927 531.402 231.036 544.622 234.112 556.942C237.204 569.323 239.177 580.495 239.442 587.186L243.439 587.027L247.436 586.869C247.138 579.339 245.001 567.527 241.874 555.004C238.731 542.419 234.511 528.812 229.917 517.632L226.217 519.153ZM243.439 587.027L246.896 585.015C219.952 538.733 165.219 444.43 160.968 435.997L157.396 437.798L153.824 439.598C158.219 448.316 213.168 542.981 239.982 589.04L243.439 587.027ZM157.396 437.798L160.968 435.997C159.406 432.899 159.713 430.328 160.643 428.246C161.646 425.999 163.423 424.273 164.653 423.453L162.435 420.124L160.218 416.795C157.968 418.294 155.064 421.117 153.338 424.984C151.538 429.015 151.064 434.122 153.824 439.598L157.396 437.798ZM162.435 420.124L164.581 423.5L203.612 398.691L201.467 395.315L199.321 391.939L160.29 416.748L162.435 420.124ZM201.467 395.315L204.793 393.094C191.776 373.595 176.687 344.718 170.816 328.334L167.051 329.683L163.285 331.032C169.432 348.186 184.864 377.649 198.14 397.536L201.467 395.315ZM167.051 329.683L170.957 328.824L170.957 328.821L167.05 329.68L163.143 330.539L163.144 330.542L167.051 329.683ZM167.05 329.68L169.753 326.732C143.172 302.357 132.382 278.405 128.719 258.482C125.044 238.494 128.483 222.24 130.884 213.189L127.017 212.164L123.151 211.138C120.61 220.717 116.872 238.284 120.851 259.929C124.843 281.638 136.54 307.13 164.347 332.628L167.05 329.68ZM127.017 212.164L130.884 213.189C133.589 202.992 140.931 195.07 149.491 189.142C158.031 183.226 167.409 179.562 173.422 177.788L172.291 173.952L171.159 170.115C164.581 172.056 154.364 176.034 144.935 182.565C135.526 189.082 126.528 198.409 123.151 211.138L127.017 212.164ZM172.291 173.952L168.456 172.813C163.879 188.227 160.743 207.45 160.314 224.049C160.1 232.342 160.556 240.146 161.922 246.566C163.247 252.79 165.604 258.579 169.913 261.76L172.288 258.541L174.663 255.323C172.817 253.96 170.976 250.675 169.747 244.901C168.56 239.322 168.106 232.204 168.311 224.256C168.722 208.374 171.743 189.847 176.125 175.091L172.291 173.952ZM172.288 258.541L175.791 260.474C179.212 254.273 183.843 240.862 187.735 224.64C191.655 208.305 194.927 188.698 195.456 169.943L191.458 169.831L187.459 169.718C186.95 187.769 183.787 206.808 179.956 222.773C176.099 238.85 171.665 251.391 168.786 256.609L172.288 258.541ZM191.458 169.831L188.885 172.893C214.651 194.539 226.711 212.19 231.981 227.213C237.231 242.18 235.926 255.022 233.915 267.676L237.865 268.303L241.816 268.931C243.88 255.944 245.459 241.467 239.53 224.565C233.621 207.721 220.441 188.955 194.031 166.768L191.458 169.831ZM237.865 268.303L233.915 267.676C232.478 276.716 225.997 286.396 217.848 295.085C209.797 303.669 200.622 310.755 194.7 314.609L196.882 317.962L199.064 321.315C205.446 317.161 215.133 309.674 223.683 300.558C232.134 291.547 239.993 280.402 241.816 268.931L237.865 268.303ZM196.882 317.962L193.772 320.477L193.773 320.478L196.883 317.963L199.993 315.448L199.993 315.447L196.882 317.962ZM196.883 317.963C192.972 317.124 192.972 317.125 192.972 317.126C192.972 317.127 192.971 317.128 192.971 317.129C192.971 317.13 192.97 317.132 192.97 317.134C192.969 317.138 192.968 317.143 192.967 317.148C192.965 317.159 192.962 317.173 192.958 317.189C192.952 317.223 192.942 317.267 192.931 317.323C192.909 317.434 192.88 317.59 192.844 317.785C192.774 318.176 192.682 318.729 192.587 319.413C192.398 320.775 192.196 322.679 192.141 324.866C192.033 329.12 192.464 334.974 195.111 339.943L198.641 338.061L202.171 336.18C200.492 333.029 200.043 328.833 200.138 325.068C200.184 323.246 200.354 321.648 200.512 320.511C200.59 319.944 200.665 319.498 200.718 319.202C200.745 319.054 200.766 318.944 200.779 318.876C200.786 318.842 200.791 318.819 200.793 318.806C200.795 318.8 200.795 318.796 200.796 318.796C200.796 318.795 200.796 318.795 200.795 318.797C200.795 318.797 200.795 318.798 200.795 318.799C200.795 318.799 200.795 318.8 200.795 318.8C200.794 318.801 200.794 318.802 196.883 317.963ZM198.641 338.061L195.111 339.943C196.886 343.274 202.168 350.895 207.827 358.818C213.575 366.866 219.96 375.562 224.147 381.232L227.365 378.855L230.582 376.479C226.403 370.821 220.048 362.164 214.337 354.168C208.537 346.048 203.64 338.936 202.171 336.18L198.641 338.061ZM227.365 378.855L229.497 382.24L229.641 382.149L227.509 378.764L225.377 375.38L225.233 375.471L227.365 378.855ZM227.509 378.764L231.09 380.547C232.346 378.024 233.634 375.525 234.958 373.054L231.432 371.165L227.906 369.277C226.542 371.822 225.218 374.392 223.928 376.982L227.509 378.764ZM231.432 371.165L235.118 369.613L219.135 331.665L215.448 333.218L211.762 334.771L227.746 372.718L231.432 371.165ZM215.448 333.218L219.135 331.665C217.374 327.484 220.817 322.973 225.312 323.569L225.838 319.604L226.364 315.639C215.737 314.23 207.602 324.894 211.762 334.771L215.448 333.218ZM225.838 319.604L225.312 323.569L262.159 328.457L262.685 324.492L263.211 320.526L226.364 315.639L225.838 319.604ZM262.685 324.492L265.776 327.031C268.34 323.911 270.971 320.846 273.662 317.839L270.681 315.172L267.701 312.504C264.936 315.593 262.232 318.743 259.595 321.952L262.685 324.492ZM270.681 315.172L274.6 314.368L267.521 279.861L263.603 280.665L259.685 281.469L266.763 315.976L270.681 315.172ZM263.603 280.665L267.521 279.861C266.61 275.418 270.869 271.664 275.162 273.126L276.451 269.339L277.74 265.552C267.593 262.098 257.531 270.969 259.685 281.469L263.603 280.665ZM276.451 269.339L275.162 273.125L306.752 283.883L308.041 280.097L309.331 276.31L277.74 265.553L276.451 269.339ZM308.041 280.097L310.518 283.238C314.009 280.485 317.563 277.81 321.178 275.213L318.845 271.965L316.511 268.716C312.8 271.382 309.15 274.129 305.565 276.956L308.041 280.097ZM318.845 271.965L322.845 271.941L322.629 235.681L318.63 235.705L314.63 235.728L314.845 271.988L318.845 271.965ZM318.63 235.705L322.629 235.681C322.602 231.145 327.51 228.295 331.435 230.566L333.438 227.104L335.441 223.642C326.163 218.274 314.565 225.011 314.63 235.729L318.63 235.705ZM333.438 227.104L331.435 230.566L362.268 248.406L364.271 244.944L366.274 241.482L335.441 223.642L333.438 227.104ZM364.271 244.944L366.015 248.544C369.704 246.757 373.434 245.041 377.201 243.398L375.602 239.732L374.003 236.065C370.139 237.75 366.312 239.511 362.527 241.344L364.271 244.944ZM375.602 239.732L379.53 240.489L386.441 204.627L382.514 203.87L378.586 203.113L371.674 238.975L375.602 239.732ZM382.514 203.87L386.441 204.627C387.299 200.173 392.67 198.335 396.077 201.329L398.717 198.324L401.358 195.319C393.305 188.244 380.614 192.588 378.586 203.113L382.514 203.87ZM398.717 198.324L396.077 201.329L423.663 225.568L426.303 222.563L428.944 219.558L401.358 195.319L398.717 198.324ZM426.303 222.563L427.262 226.446C430.107 225.744 432.972 225.085 435.854 224.458L435.004 220.549L434.154 216.641C431.21 217.281 428.272 217.957 425.345 218.68L426.303 222.563ZM435.004 220.549L438.709 222.058L453.89 184.782L450.185 183.273L446.481 181.764L431.299 219.041L435.004 220.549ZM450.185 183.273L453.89 184.782C455.601 180.583 461.225 179.828 463.983 183.428L467.158 180.995L470.333 178.563C463.816 170.056 450.524 171.839 446.481 181.764L450.185 183.273ZM467.158 180.995L463.982 183.427L488.798 215.833L491.974 213.401L495.15 210.969L470.334 178.563L467.158 180.995ZM491.974 213.401L492.117 217.398C494.509 217.313 496.909 217.255 499.313 217.223L499.26 213.223L499.206 209.223C496.745 209.256 494.285 209.315 491.831 209.403L491.974 213.401ZM499.26 213.223L502.599 215.426L523.464 183.792L520.125 181.59L516.786 179.387L495.921 211.021L499.26 213.223Z" fill="#2D2D2D" mask="url(#path-17-outside-1_1373_645)"/>
<ellipse cx="600.242" cy="463.229" rx="17.5977" ry="23.4636" transform="rotate(14.8561 600.242 463.229)" fill="white"/>
<ellipse cx="465.771" cy="427.559" rx="17.5977" ry="23.4636" transform="rotate(14.8561 465.771 427.559)" fill="white"/>
<path d="M522.252 555.19C511.861 553.213 505.447 548.004 495.71 525.93L558.952 538.808C543.806 556.23 532.642 557.167 522.252 555.19Z" fill="black"/>
<path d="M198.639 338.061C202.966 346.181 231.976 385.078 231.976 385.078C229.935 399.624 229.467 424.548 216.224 413.619C202.981 402.69 175.617 353.586 167.052 329.682C112.66 279.808 122.074 230.792 127.016 212.163C133.097 189.237 159.698 177.666 172.289 173.952C163.329 204.123 159.974 249.459 172.289 258.543L196.881 317.963C196.881 317.963 194.313 329.942 198.639 338.061Z" fill="#F74B00"/>
<path fill-rule="evenodd" clip-rule="evenodd" d="M169.169 21.4333C169.34 21.4333 169.499 21.5222 169.59 21.668L174.159 29.0467C177.065 29.1982 179.936 29.4811 182.768 29.8897L188.687 23.5586L188.733 23.5148C188.847 23.4207 188.998 23.3817 189.145 23.411C189.313 23.4444 189.452 23.5626 189.512 23.723L192.552 31.8351C195.359 32.5499 198.117 33.3902 200.82 34.3498L207.877 29.2779L207.93 29.244C208.06 29.1739 208.216 29.165 208.355 29.2224C208.513 29.2881 208.626 29.4311 208.654 29.6002L210.056 38.193C212.653 39.4388 215.185 40.7992 217.646 42.2679L225.591 38.6472C225.747 38.5761 225.929 38.5909 226.071 38.6862C226.214 38.7815 226.297 38.9439 226.291 39.1153L225.981 47.8586C228.267 49.5727 230.474 51.3875 232.594 53.2961L241.125 51.2869C241.292 51.2475 241.467 51.2974 241.589 51.4187C241.71 51.54 241.76 51.7154 241.72 51.8823L239.71 60.4125C241.619 62.5329 243.434 64.7394 245.148 67.0253L253.892 66.7159C254.063 66.7098 254.226 66.7931 254.321 66.9357C254.416 67.0783 254.431 67.26 254.36 67.416L250.739 75.3606C252.207 77.8213 253.568 80.3535 254.814 82.9508L263.407 84.353C263.576 84.3807 263.719 84.4938 263.785 84.6522C263.85 84.8105 263.829 84.9914 263.729 85.1306L258.657 92.1863C259.617 94.889 260.457 97.6476 261.172 100.455L269.284 103.495C269.444 103.555 269.563 103.694 269.596 103.862C269.63 104.03 269.574 104.203 269.448 104.32L263.117 110.238C263.526 113.07 263.809 115.942 263.96 118.848L271.339 123.418C271.485 123.508 271.573 123.667 271.573 123.839C271.573 124.01 271.485 124.169 271.339 124.26L263.96 128.828C263.809 131.734 263.526 134.606 263.117 137.438L269.448 143.357C269.574 143.474 269.63 143.647 269.596 143.815C269.563 143.983 269.444 144.122 269.284 144.182L261.172 147.221C260.457 150.029 259.617 152.787 258.657 155.49L263.729 162.546C263.829 162.686 263.85 162.867 263.785 163.025C263.719 163.183 263.576 163.296 263.407 163.324L254.814 164.726C253.568 167.323 252.207 169.855 250.739 172.316L254.36 180.261C254.431 180.417 254.416 180.599 254.321 180.741C254.226 180.884 254.063 180.967 253.892 180.961L245.148 180.651C243.434 182.937 241.619 185.144 239.71 187.264L241.72 195.795C241.759 195.962 241.71 196.137 241.589 196.259C241.467 196.38 241.292 196.429 241.125 196.39L232.594 194.38C230.474 196.289 228.267 198.104 225.981 199.818L226.291 208.562C226.297 208.733 226.214 208.895 226.071 208.991C225.929 209.086 225.747 209.101 225.591 209.03L217.646 205.408C215.185 206.877 212.653 208.238 210.056 209.484L208.654 218.077C208.626 218.246 208.513 218.389 208.355 218.455C208.197 218.52 208.016 218.499 207.877 218.399L200.82 213.327C198.117 214.286 195.359 215.127 192.552 215.842L189.512 223.954C189.452 224.114 189.313 224.233 189.145 224.266C188.977 224.3 188.804 224.244 188.687 224.118L182.768 217.787C179.936 218.195 177.065 218.478 174.159 218.63L169.59 226.009C169.499 226.155 169.34 226.243 169.169 226.243C168.997 226.243 168.838 226.155 168.748 226.009L164.178 218.63C161.272 218.478 158.401 218.195 155.569 217.787L149.65 224.118C149.533 224.244 149.36 224.3 149.192 224.266C149.024 224.233 148.885 224.114 148.825 223.954L145.785 215.841C142.978 215.126 140.22 214.286 137.517 213.327L130.461 218.399C130.322 218.499 130.141 218.52 129.982 218.455C129.824 218.389 129.711 218.246 129.683 218.077L128.281 209.483C125.684 208.238 123.152 206.877 120.691 205.408L112.746 209.03C112.59 209.101 112.408 209.086 112.266 208.991C112.123 208.895 112.04 208.733 112.046 208.562L112.355 199.817C110.07 198.103 107.864 196.289 105.744 194.38L97.2123 196.39C97.0455 196.429 96.87 196.38 96.7488 196.259C96.6275 196.137 96.5777 195.962 96.6169 195.795L98.6265 187.263C96.7181 185.143 94.9036 182.937 93.1896 180.651L84.4453 180.961C84.274 180.967 84.1116 180.884 84.0163 180.741C83.921 180.599 83.9062 180.417 83.9773 180.261L87.5983 172.315C86.1298 169.854 84.7691 167.323 83.5234 164.726L74.9303 163.324C74.7612 163.296 74.6181 163.183 74.5525 163.025C74.4869 162.867 74.508 162.686 74.6079 162.546L79.6802 155.489C78.7207 152.787 77.8806 150.029 77.1658 147.222L69.0531 144.182C68.8927 144.122 68.7745 143.983 68.741 143.815C68.7076 143.647 68.7636 143.474 68.8887 143.357L75.2204 137.438C74.8118 134.606 74.5286 131.735 74.3771 128.829L66.998 124.26C66.8523 124.169 66.7638 124.01 66.7637 123.839C66.7637 123.667 66.8524 123.508 66.998 123.418L74.3771 118.848C74.5286 115.942 74.8116 113.07 75.2201 110.239L68.8887 104.32C68.7635 104.203 68.7076 104.03 68.741 103.862C68.7745 103.694 68.8927 103.555 69.0531 103.495L77.1642 100.455C77.8789 97.6472 78.7191 94.8884 79.6786 92.1854L74.6079 85.1306C74.508 84.9915 74.487 84.8105 74.5525 84.6522C74.6181 84.4938 74.7611 84.3807 74.9303 84.353L83.5198 82.9511C84.766 80.3526 86.1271 77.8192 87.5964 75.3573L83.9773 67.416C83.9062 67.26 83.921 67.0783 84.0163 66.9357C84.1116 66.7931 84.2739 66.7098 84.4453 66.7159L93.1838 67.025C94.8991 64.7372 96.7151 62.529 98.6252 60.407L96.6169 51.8823C96.5776 51.7153 96.6275 51.54 96.7488 51.4187C96.87 51.2974 97.0454 51.2475 97.2123 51.2869L105.737 53.2951C107.859 51.3849 110.067 49.5685 112.355 47.8531L112.046 39.1153C112.04 38.9439 112.123 38.7815 112.266 38.6862C112.408 38.5909 112.59 38.5761 112.746 38.6472L120.686 42.2657C123.148 40.7961 125.682 39.4352 128.281 38.1888L129.683 29.6002L129.697 29.538C129.74 29.3965 129.844 29.2799 129.982 29.2224C130.141 29.1568 130.322 29.1778 130.461 29.2779L137.515 34.3479C140.218 33.3883 142.977 32.5482 145.786 31.8335L148.825 23.723L148.851 23.665C148.92 23.5344 149.045 23.4403 149.192 23.411C149.36 23.3775 149.533 23.4334 149.65 23.5586L155.568 29.8894C158.4 29.4809 161.272 29.1982 164.178 29.0467L168.748 21.668L168.784 21.6161C168.878 21.5014 169.019 21.4333 169.169 21.4333ZM151.759 130.927L151.739 145.003L170.113 145.003C170.815 145.003 171.298 145.144 171.298 145.787L171.298 167.996C171.298 168.659 170.815 168.779 170.113 168.779L107.32 168.779C109.364 171.549 111.591 174.179 113.987 176.651L126.899 173.88C129.971 173.217 132.984 175.185 133.646 178.257L136.779 192.876C146.809 197.534 157.726 199.972 168.784 200.024C179.843 200.076 190.783 197.74 200.856 193.177L203.989 178.558C204.652 175.486 207.684 173.518 210.756 174.181L223.949 177.012C226.51 174.439 228.886 171.688 231.058 168.779L198.647 168.779C193.527 168.779 188.728 161.55 187.543 157.935C186.358 154.702 184.611 144.622 183.828 141.53C181.318 131.449 173.426 130.927 171.619 130.927L151.759 130.927ZM215.254 182.073C214.419 182.048 213.588 182.192 212.809 182.495C212.03 182.798 211.32 183.254 210.721 183.837C210.122 184.419 209.645 185.115 209.32 185.885C208.995 186.655 208.828 187.482 208.828 188.318C208.828 189.974 209.486 191.562 210.657 192.734C211.829 193.905 213.417 194.563 215.073 194.563C216.73 194.563 218.318 193.905 219.489 192.734C220.661 191.562 221.319 189.974 221.319 188.318C221.319 186.692 220.686 185.13 219.554 183.964C218.422 182.798 216.879 182.12 215.254 182.073ZM122.782 181.792C121.947 181.767 121.116 181.911 120.337 182.214C119.558 182.517 118.848 182.973 118.249 183.555C117.65 184.138 117.174 184.834 116.849 185.604C116.524 186.374 116.356 187.201 116.357 188.037C116.357 189.693 117.014 191.281 118.186 192.453C119.357 193.624 120.945 194.282 122.602 194.282C124.258 194.282 125.846 193.624 127.018 192.453C128.189 191.281 128.847 189.693 128.847 188.037C128.848 186.411 128.214 184.849 127.082 183.683C125.95 182.517 124.407 181.839 122.782 181.792ZM172.563 57.8933C170.293 60.082 166.699 59.9815 164.53 57.7124L154.911 47.632C138.303 50.7698 123.192 59.2956 111.919 71.8894L193.446 71.8894C195.495 71.8894 203.085 72.7931 209.953 77.3111C214.832 80.5441 222.001 87.1309 222.001 97.5929C222.001 107.272 213.969 114.521 206.238 119.421C212.463 124.341 216.399 127.172 218.768 140.485C219.331 142.935 223.769 145.084 227.785 144.622C232.002 144.16 236.801 142.292 236.801 133.778L236.801 130.164C236.801 129.401 237.122 128.879 237.905 128.879L245.797 128.879C246.13 124.438 246.076 119.977 245.637 115.545L231.46 109.26C228.608 107.975 227.303 104.601 228.568 101.729L235.937 85.1025C230.413 75.4129 222.845 67.0421 213.76 60.5714C204.674 54.1007 194.289 49.6854 183.326 47.632L172.563 57.8933ZM106.336 95.143L109.107 101.388C110.392 104.26 109.087 107.613 106.216 108.898L92.7615 114.882C91.6929 124.731 92.5386 134.693 95.2517 144.22L117.22 144.22L117.22 95.143L106.336 95.143ZM151.759 95.6652L151.739 110.143L175.795 110.143C180.916 110.143 187.141 108.336 187.141 103.296C187.141 97.2113 179.029 95.6652 177.683 95.6652L151.759 95.6652ZM243.468 94.1389C242.633 94.1147 241.801 94.2585 241.022 94.5615C240.244 94.8645 239.534 95.3205 238.934 95.9028C238.335 96.4851 237.859 97.182 237.534 97.9517C237.209 98.7214 237.042 99.5484 237.042 100.384C237.042 102.04 237.7 103.629 238.871 104.8C240.042 105.971 241.631 106.629 243.287 106.629C244.943 106.629 246.532 105.971 247.703 104.8C248.874 103.629 249.532 102.04 249.532 100.384C249.533 98.7585 248.9 97.1969 247.767 96.0308C246.635 94.8647 245.093 94.1859 243.468 94.1389ZM94.569 93.8578C93.7338 93.8336 92.9022 93.9774 92.1236 94.2804C91.3449 94.5834 90.6348 95.0394 90.0357 95.6217C89.4365 96.204 88.9601 96.9009 88.635 97.6706C88.31 98.4403 88.1428 99.2673 88.1431 100.103C88.1431 101.759 88.801 103.348 89.9722 104.519C91.1433 105.69 92.7319 106.348 94.3881 106.348C96.0444 106.348 97.6329 105.69 98.8041 104.519C99.9753 103.348 100.633 101.759 100.633 100.103C100.634 98.4774 100.001 96.9158 98.8686 95.7497C97.7362 94.5836 96.1937 93.9048 94.569 93.8578ZM169.029 37.3507C168.193 37.3265 167.361 37.47 166.583 37.773C165.804 38.076 165.094 38.5323 164.495 39.1146C163.896 39.6969 163.42 40.3935 163.095 41.1632C162.769 41.9329 162.602 42.7602 162.603 43.5957C162.603 45.252 163.261 46.8405 164.432 48.0117C165.603 49.1829 167.191 49.8408 168.848 49.8408C170.504 49.8408 172.092 49.1829 173.264 48.0117C174.435 46.8405 175.093 45.252 175.093 43.5957C175.093 41.967 174.459 40.4025 173.327 39.2358C172.194 38.0692 170.651 37.3927 169.029 37.3507Z" fill="black"/>
<path d="M198.639 338.061C202.966 346.181 231.976 385.077 231.976 385.077C229.935 399.624 229.466 424.548 216.224 413.619C202.981 402.69 175.616 353.586 167.051 329.682L172.288 258.542C178.588 247.125 190.419 206.637 191.458 169.83C243.634 213.664 241.941 242.662 237.866 268.303C234.606 288.815 209.184 309.957 196.881 317.963C196.881 317.963 194.312 329.941 198.639 338.061Z" fill="#F74B00"/>
</svg>
